<svg xmlns="http://www.w3.org/2000/svg" viewBox="19.71 141.86 556.58 132.28">
  <g fill="#2e94cd">
    <path d="M525.859 575.095h166v.693h-166z" overflow="visible" style="marker:none;--darkreader-inline-color:#e8e6e3;--darkreader-inline-fill:#e8e6e3;--darkreader-inline-stroke:none" transform="translate(-1740.943 -1653.75) scale(3.34815)"/>
    <path d="M637.58 536.3v1.896h-.39v.78h.234v1.064l-.104 1.143-.182.026-.779 4.65h-.234v1.688h-.987v9.974h-1.22l.155 1.065.338.078v4.415h-.494l.156 1.065.338.078v4.39h-.494l.156 1.065.338.078-.026 6.052h17.922l-.026-6.052.338-.078.156-1.065h-.494v-4.39l.338-.078.156-1.065h-.494v-4.415l.338-.078.156-1.065h-12.234v-9.974h-.961l-.026-1.714-.26.025-.727-4.649-.182-.026-.208-1.143v-1.065h.234v-.779h-.363V536.3h-.468zm-1.688 11.766h.233v3.17h-.233v-3.17zm3.662 0h.234v3.17h-.234v-3.17zm3.792 16.338a2.16 2.16 0 0 1 2.156 2.156 2.16 2.16 0 0 1-2.156 2.156 2.16 2.16 0 0 1-2.156-2.156 2.16 2.16 0 0 1 2.156-2.156zm0 6.078c.637.446.973.873 1.143 1.403v3.22h-2.286v-3.22c.085-.467.57-1 1.143-1.403zm-4.987.961c.504.353.775.697.91 1.117v2.546h-1.819v-2.546c.067-.37.456-.798.91-1.117zm9.974 0c.504.353.775.697.91 1.117v2.546h-1.819v-2.546c.067-.37.456-.798.91-1.117z" style="--darkreader-inline-fill:#e8e6e3;--darkreader-inline-stroke:none" transform="translate(-1740.943 -1653.75) scale(3.34815)"/>
    <path d="M578.127 572.036v2.736c.025-.01 4.442-1.588 7.887-1.588 3.19 0 7.096 1.307 7.7 1.516v-2.664zm49.092-.646 2.577-2.947 2.577 2.946v4.4h-5.154z" overflow="visible" style="marker:none;--darkreader-inline-color:#e8e6e3;--darkreader-inline-fill:#e8e6e3;--darkreader-inline-stroke:none" transform="translate(-1740.943 -1653.75) scale(3.34815)"/>
    <path d="m574.68 563.087-1.705 3.297h-.044v9.404h5.486c-.002-3.126 0-6.274-.002-9.379l-.043-.025-1.784-3.297h-1.908zm20.494 0-1.704 3.297h-.044v9.404h5.475l.01-9.404h-.045l-1.784-3.297h-1.908z" overflow="visible" style="marker:none;--darkreader-inline-color:#e8e6e3;--darkreader-inline-fill:#e8e6e3;--darkreader-inline-stroke:none" transform="translate(-1740.943 -1653.75) scale(3.34815)"/>
    <path d="M557.344 572.036v2.736c.025-.01 4.524-1.588 8.033-1.588 3.249 0 7.227 1.307 7.843 1.516v-2.664zm54.819-.627.552-2.946h6.996l.553 2.946v4.399h-8.1zm9.001-1.493 2.577-2.945 2.578 2.945v5.872h-5.155zm-21.025 1.474 3.314-2.947 3.314 2.946v4.4h-6.628zm59.934 0h5.155v4.398h-5.155zm-5.891-3.136h5.154v7.534h-5.154zm25.081-5.713c-.242.002-.485.02-.727.026v2.182c-.77-.002-1.51.028-2.234.078v-2.13c-.369.028-.731.04-1.09.078v2.156c-.785.083-1.534.175-2.235.311v-2.155c-2.843.504-5.088 1.355-5.818 2.571v10.13h24.884l.052-5.766a4.005 4.005 0 0 0-.78-.312v-4.857a6.778 6.778 0 0 0-1.246-.701v3.324a7.344 7.344 0 0 0-.987-.337v-3.377a18.073 18.073 0 0 0-1.819-.494v3.507a33.916 33.916 0 0 0-1.402-.208v-3.558c-.369-.06-.758-.108-1.143-.156v3.61a29.126 29.126 0 0 0-1.974-.13c.013-.95.017-.386 0-1.298-.088-.012-.172-.015-.26-.026v-2.364a42.15 42.15 0 0 0-.987-.052v2.312a33.292 33.292 0 0 0-2.234-.156zm-136.099 3.191h6.985v6.609h-6.985z" overflow="visible" style="marker:none;--darkreader-inline-color:#e8e6e3;--darkreader-inline-fill:#e8e6e3;--darkreader-inline-stroke:none" transform="translate(-1740.943 -1653.75) scale(3.34815)"/>
    <path d="m538.858 562.333 5.603-3.907v13.915h-5.603z" overflow="visible" style="marker:none;--darkreader-inline-color:#e8e6e3;--darkreader-inline-fill:#e8e6e3;--darkreader-inline-stroke:none" transform="translate(-1740.943 -1653.75) scale(3.34815)"/>
    <path d="M529.35 563.65h10.21v8.534h-10.21z" overflow="visible" style="marker:none;--darkreader-inline-color:#e8e6e3;--darkreader-inline-fill:#e8e6e3;--darkreader-inline-stroke:none" transform="translate(-1740.943 -1653.75) scale(3.34815)"/>
    <path d="M525.86 571.738h32.151v4.05H525.86zm81.807-4.21 1.798-2.428 1.798 2.428v8.26h-3.596zm-51.702-.028-.3 2.13c-.635-.019-.927.305-.914 1.111H552.6c-.01-2.25.726-3.25 3.365-3.24z" overflow="visible" style="marker:none;--darkreader-inline-color:#e8e6e3;--darkreader-inline-fill:#e8e6e3;--darkreader-inline-stroke:none" transform="translate(-1740.943 -1653.75) scale(3.34815)"/>
    <path d="M552.607 570.453h2.149v1.318h-2.149z" overflow="visible" style="marker:none;--darkreader-inline-color:#e8e6e3;--darkreader-inline-fill:#e8e6e3;--darkreader-inline-stroke:none" transform="translate(-1740.943 -1653.75) scale(3.34815)"/>
  </g>
</svg>
